M48
METRIC,TZ
T1C0.300
T2C0.800
T3C0.900
T4C1.000
T5C1.500
%
G90
G05
T1
X118000Y-86365
X170180Y-93980
X172720Y-93980
T2
X101600Y-92710
X101600Y-100330
X101600Y-111760
X101600Y-119380
X101600Y-121920
X101600Y-129540
X102870Y-104140
X105410Y-92710
X105410Y-100330
X105410Y-104140
X105410Y-111760
X105410Y-119380
X105410Y-121920
X105410Y-129540
X107950Y-104140
X109220Y-92710
X109220Y-100330
X110490Y-88900
X110490Y-104140
X110490Y-110490
X110490Y-113030
X110490Y-115570
X110490Y-118110
X110490Y-120650
X110490Y-123190
X110490Y-125730
X110490Y-128270
X110490Y-130810
X113030Y-88900
X113030Y-92710
X113030Y-100330
X113030Y-104140
X115570Y-88900
X115570Y-104140
X115570Y-111760
X115570Y-119380
X115570Y-121920
X115570Y-129540
X116840Y-92710
X116840Y-100330
X118110Y-88900
X118110Y-104140
X119380Y-111760
X119380Y-119380
X119380Y-121920
X119380Y-129540
X120650Y-88900
X120650Y-92710
X120650Y-100330
X120650Y-104140
X123190Y-88900
X123190Y-104140
X124460Y-92710
X124460Y-100330
X124460Y-110490
X124460Y-113030
X124460Y-115570
X124460Y-118110
X124460Y-120650
X124460Y-123190
X124460Y-125730
X124460Y-128270
X124460Y-130810
X125730Y-104140
X128270Y-92710
X128270Y-100330
X128270Y-104140
X129540Y-111760
X129540Y-119380
X129540Y-121920
X129540Y-129540
X130810Y-104140
X132080Y-92710
X132080Y-100330
X133350Y-111760
X133350Y-119380
X133350Y-121920
X133350Y-129540
X138430Y-93980
X138430Y-123190
X138430Y-128270
X139700Y-97790
X139700Y-105410
X140970Y-93980
X140970Y-123190
X140970Y-128270
X143510Y-93980
X143510Y-97790
X143510Y-105410
X143510Y-123190
X143510Y-128270
X146050Y-93980
X146050Y-121920
X146050Y-129540
X147320Y-97790
X147320Y-105410
X148590Y-93980
X149860Y-121920
X149860Y-129540
X151130Y-93980
X151130Y-97790
X151130Y-105410
X153670Y-93980
X153670Y-109220
X153670Y-121920
X153670Y-129540
X154940Y-97790
X154940Y-105410
X156210Y-93980
X156210Y-109220
X157480Y-121920
X157480Y-129540
X158750Y-93980
X158750Y-97790
X158750Y-105410
X158750Y-109220
X161290Y-93980
X161290Y-109220
X161290Y-121920
X161290Y-129540
X162560Y-97790
X162560Y-105410
X163830Y-93980
X163830Y-109220
X163830Y-118110
X165100Y-121920
X165100Y-129540
X166370Y-93980
X166370Y-97790
X166370Y-105410
X166370Y-109220
X166370Y-118110
X168910Y-118110
X168910Y-121920
X168910Y-129540
X173990Y-83900
X173990Y-88900
X176530Y-116840
X176530Y-119380
X176530Y-121920
X176530Y-124460
X176530Y-127000
X176530Y-129540
X180340Y-114300
X180340Y-118110
X180340Y-121920
X180340Y-125730
X180340Y-129540
X187960Y-114300
X187960Y-118110
X187960Y-121920
X187960Y-125730
X187960Y-129540
T3
X177800Y-135895
X177800Y-138435
T4
X177800Y-86360
X177800Y-88900
X177800Y-91440
X177800Y-93980
X177800Y-96520
X177800Y-99060
X177800Y-101600
X177800Y-104140
X177800Y-106680
X177800Y-109220
X180340Y-86360
X180340Y-88900
X180340Y-91440
X180340Y-93980
X180340Y-96520
X180340Y-99060
X180340Y-101600
X180340Y-104140
X180340Y-106680
X180340Y-109220
T5
X115570Y-135890
X124460Y-135890
X133350Y-135890
X142240Y-135890
X149860Y-135890
M30
